<?xml version="1.0" encoding="utf-8"?>
<!-- Generator: Adobe Illustrator 27.5.0, SVG Export Plug-In . SVG Version: 6.00 Build 0)  -->
<svg version="1.1" xmlns="http://www.w3.org/2000/svg" xmlns:xlink="http://www.w3.org/1999/xlink" x="0px" y="0px"
	 viewBox="0 0 500 500" style="enable-background:new 0 0 500 500;" xml:space="preserve">
<g id="BACKGROUND">
	<rect style="fill:#FFCA00;" width="500" height="500"/>
</g>
<g id="OBJECTS">
	<g>
		<g>
			<g>
				<g>
					
						<ellipse transform="matrix(0.7071 -0.7071 0.7071 0.7071 -103.5533 249.9999)" style="fill:#FFCA00;" cx="250" cy="250" rx="173.565" ry="173.565"/>
					<path style="fill:#FFFFFF;" d="M250,83.935c91.715,0,166.065,74.35,166.065,166.065S341.715,416.065,250,416.065
						S83.935,341.715,83.935,250S158.285,83.935,250,83.935 M250,68.935c-24.437,0-48.151,4.789-70.483,14.235
						c-21.563,9.12-40.925,22.174-57.549,38.798c-16.624,16.624-29.677,35.986-38.798,57.549
						C73.724,201.849,68.935,225.563,68.935,250s4.789,48.151,14.235,70.483c9.12,21.563,22.174,40.925,38.798,57.549
						c16.624,16.624,35.986,29.677,57.549,38.797c22.332,9.446,46.046,14.235,70.483,14.235s48.151-4.789,70.483-14.235
						c21.563-9.12,40.925-22.174,57.549-38.797c16.624-16.624,29.677-35.986,38.798-57.549
						c9.446-22.332,14.235-46.046,14.235-70.483s-4.789-48.151-14.235-70.483c-9.12-21.563-22.174-40.925-38.798-57.549
						c-16.624-16.624-35.986-29.677-57.549-38.798C298.151,73.724,274.437,68.935,250,68.935L250,68.935z"/>
				</g>
				<g>
					
						<ellipse transform="matrix(0.7071 -0.7071 0.7071 0.7071 -103.5533 249.9999)" style="fill:#FFFFFF;" cx="250" cy="250" rx="170.565" ry="170.565"/>
					<path style="fill:#1D1F38;" d="M250,83.935c91.715,0,166.065,74.35,166.065,166.065S341.715,416.065,250,416.065
						S83.935,341.715,83.935,250S158.285,83.935,250,83.935 M250,74.935c-23.63,0-46.557,4.63-68.146,13.761
						c-20.848,8.818-39.569,21.439-55.644,37.514c-16.075,16.075-28.696,34.796-37.514,55.644
						C79.565,203.443,74.935,226.37,74.935,250s4.63,46.557,13.761,68.146c8.818,20.848,21.439,39.569,37.514,55.644
						c16.075,16.075,34.796,28.696,55.644,37.514c21.589,9.131,44.516,13.761,68.146,13.761s46.557-4.63,68.146-13.761
						c20.848-8.818,39.569-21.439,55.644-37.514s28.696-34.796,37.514-55.644c9.131-21.589,13.761-44.516,13.761-68.146
						s-4.63-46.557-13.761-68.146c-8.818-20.848-21.439-39.569-37.514-55.644c-16.075-16.075-34.796-28.696-55.644-37.514
						C296.557,79.565,273.63,74.935,250,74.935L250,74.935z"/>
				</g>
				<g>
					
						<ellipse transform="matrix(0.7071 -0.7071 0.7071 0.7071 -103.5533 249.9999)" style="fill:#FFFFFF;" cx="250" cy="250" rx="161.241" ry="161.241"/>
					<path style="fill:#FFCA00;" d="M250,93.583c41.78,0,81.06,16.27,110.603,45.813c29.543,29.543,45.813,68.823,45.813,110.604
						c0,41.78-16.27,81.06-45.813,110.603C331.06,390.147,291.78,406.417,250,406.417s-81.06-16.27-110.604-45.813
						C109.853,331.06,93.583,291.78,93.583,250c0-41.781,16.27-81.06,45.813-110.604C168.94,109.853,208.219,93.583,250,93.583
						 M250,83.935c-91.715,0-166.065,74.35-166.065,166.065S158.285,416.065,250,416.065c91.715,0,166.065-74.35,166.065-166.065
						S341.715,83.935,250,83.935L250,83.935z"/>
				</g>
			</g>
			<g>
				<path id="SVGID_x5F_1_x5F_" style="fill:none;" d="M362.469,250.017c0,61.017-50.354,110.48-112.469,110.48
					s-112.469-49.464-112.469-110.48"/>
				<text>				<textPath  xlink:href="#SVGID_x5F_1_x5F_" startOffset="0%">
<tspan  style="fill:#1D1F38;stroke:#1D1F38;stroke-width:0.6045;stroke-miterlimit:10; font-family:'Montserrat-Bold'; font-size:33px; letter-spacing:185.501;">COMPANY NAME</tspan>				</textPath>
</text>
				<path id="SVGID_x5F_00000109028952860911126850000003323009008866414519_x5F_" style="fill:none;" d="M137.531,249.983
					c0-61.017,50.354-110.48,112.469-110.48s112.469,49.464,112.469,110.48"/>
				<text>				<textPath  xlink:href="#SVGID_x5F_00000109028952860911126850000003323009008866414519_x5F_" startOffset="0%">
<tspan  style="fill:#1D1F38;stroke:#1D1F38;stroke-width:0.6045;stroke-miterlimit:10; font-family:'Montserrat-Bold'; font-size:33px; letter-spacing:185.501;">COMPANY NAME</tspan>				</textPath>
</text>
				<g>
					<circle style="fill:#FFCA00;" cx="372.941" cy="250" r="7.784"/>
					<circle style="fill:#FFCA00;" cx="127.059" cy="250" r="7.784"/>
				</g>
			</g>
		</g>
		<g>
			<g>
				<ellipse style="fill:#FFCA00;" cx="250" cy="250" rx="98.426" ry="96.685"/>
				<g>
					<path style="fill:#FFFFFF;" d="M250,166.513c46.913,0,85.079,37.452,85.079,83.487S296.913,333.487,250,333.487
						S164.921,296.035,164.921,250S203.087,166.513,250,166.513 M250,161.513c-49.75,0-90.079,39.617-90.079,88.487
						s40.33,88.487,90.079,88.487S340.079,298.87,340.079,250S299.749,161.513,250,161.513L250,161.513z"/>
				</g>
			</g>
			<g>
				<defs>
					<path id="SVGID_00000094580224205515776500000007304979128876175489_" d="M345.902,260.248
						c0.17,45.335-45.814,86.406-93.068,87.014c-47.254,0.608-105.143-37.51-105.751-84.764
						c-0.608-47.254,65.531-146.007,112.658-149.525C374.211,104.429,345.724,212.991,345.902,260.248z"/>
				</defs>
				<clipPath id="SVGID_00000033366276133230615420000016900264838655376822_">
					<use xlink:href="#SVGID_00000094580224205515776500000007304979128876175489_"  style="overflow:visible;"/>
				</clipPath>
				<g style="clip-path:url(#SVGID_00000033366276133230615420000016900264838655376822_);">
					<g>
						<g>
							<g>
								<path style="fill:#1D1F38;" d="M253.762,252.263c7.667,3.696,15.26,7.56,22.691,11.712
									c6.82,3.81,12.998,8.641,20.024,12.092c5.043,2.477,9.488-5.077,4.422-7.565c-7.026-3.451-13.204-8.282-20.024-12.092
									c-7.431-4.152-15.024-8.016-22.691-11.712C253.127,242.26,248.679,249.812,253.762,252.263L253.762,252.263z"/>
							</g>
						</g>
						<g>
							<g>
								<path style="fill:#FFFFFF;" d="M343.036,269.875c-1.143-7.54-11.97-8.354-18.377-11.724c0.213-3.203,2.059-5.814,2.48-8.986
									c0.296-2.23-0.153-4.793-1.115-6.831c-1.272-2.693-5.112-6.734-8.489-6.286c-4.418,0.587-6.77,8.616-7.982,12.071
									c-1.372,3.91-2.799,7.467-5.763,10.492c-0.392,0.4-0.784,0.779-1.172,1.151c-6.983-4.172-13.064,4.644-14.091,10.788
									c-0.882,5.277,2.859,14.744,9.098,12.295c1.259,3.049,3.282,5.802,6.126,7.924c6.644,4.955,21.983,6.84,26.125-2.166
									c0.018-0.04,0.025-0.077,0.04-0.116c0.718-0.199,1.417-0.5,2.078-0.943c2.711-1.814,5.948-5.77,5.707-9.334
									C341.016,276.902,343.618,273.714,343.036,269.875z"/>
								<g>
									<g>
										<g>
											<path style="fill:#1D1F38;" d="M327.689,287.998c-2.587,5.268-11.346,5.057-16.375,3.793
												c-4.139-1.04-7.814-3.69-10.104-7.297c-5.064-7.978-1.929-17.553,4.261-23.653c2.383-2.349,4.214-4.973,5.516-8.063
												c1.495-3.547,2.074-8.499,4.597-11.43c5.395-6.269,9.973,2.3,8.754,7.583c-0.752,3.26-2.463,5.84-2.416,9.298
												c0.029,2.112,3.314,2.118,3.285,0c-0.079-5.73,4.011-9.822,1.898-15.769c-1.18-3.323-5.06-8.03-9.043-7.752
												c-3.862,0.27-6.355,6.62-7.523,9.644c-1.491,3.86-2.418,7.829-4.879,11.24c-1.844,2.556-4.518,4.294-6.31,6.869
												c-5.987,8.606-5.105,21.327,2.949,28.242c6.767,5.811,23.484,8.609,28.226-1.048
												C331.454,287.765,328.621,286.098,327.689,287.998L327.689,287.998z"/>
										</g>
									</g>
									<g>
										<g>
											<path style="fill:#1D1F38;" d="M319.686,257.658c2.116,2.27,4.63,3.74,7.513,4.858c4.144,1.607,12.212,2.568,13.25,7.71
												c1.626,8.059-10.201,4.62-14.365,2.991c-1.092-0.427-2.126-0.861-3.132-1.461c-2.186-1.303-2.257-1.38-2.304-4.226
												c-0.047-2.853-0.018-2.989,2.341-3.993c0.953-0.405,1.858-0.621,2.875-0.805c2.077-0.377,1.197-3.544-0.873-3.168
												c-5.017,0.91-10.503,4.574-8.26,10.398c1.244,3.229,4.867,5.023,7.873,6.246c3.308,1.346,8.252,3.201,11.911,2.909
												c5.134-0.409,9.487-6.02,7.241-10.906c-3.738-8.131-16.108-6.829-21.746-12.877
												C320.565,253.785,318.245,256.112,319.686,257.658L319.686,257.658z"/>
										</g>
									</g>
									<g>
										<g>
											<path style="fill:#1D1F38;" d="M335.403,277.945c0.547,5.711-5.562,9.191-10.327,7.717
												c-1.715-0.531-3.336-1.416-4.807-2.436c-3.461-2.398-5.154-7.281,0.016-8.728c2.033-0.569,1.169-3.74-0.873-3.168
												c-3.194,0.894-5.964,3.686-6.118,7.179c-0.189,4.3,4.446,7.334,7.824,9.058c3.499,1.785,8.166,3.056,11.69,0.76
												c3.268-2.129,6.262-6.393,5.88-10.382C338.488,275.858,335.201,275.838,335.403,277.945L335.403,277.945z"/>
										</g>
									</g>
									<g>
										<g>
											<path style="fill:#1D1F38;" d="M302.358,259.406c-7.476-4.691-14.002,5.354-14.82,11.786
												c-0.698,5.487,3.86,16.383,11.026,11.453c1.731-1.191,0.09-4.039-1.658-2.837c-5.619,3.866-6.44-7.398-5.75-10.002
												c0.93-3.505,4.853-10.507,9.544-7.563C302.496,263.37,304.147,260.528,302.358,259.406L302.358,259.406z"/>
										</g>
									</g>
								</g>
							</g>
							<g>
								<g>
									<path style="fill:#1D1F38;" d="M320.222,292.132c-2.827-0.067-5.338-1.242-7.569-2.929
										c-1.467-1.11-2.077-2.352-1.554-4.202c0.551-1.947,2.124-2.251,3.894-1.752c2.039,0.574,2.909-2.595,0.873-3.168
										c-2.03-0.572-4.393-0.608-6.09,0.839c-1.75,1.493-2.571,4.59-2.144,6.806c0.48,2.492,2.783,4.054,4.812,5.305
										c2.382,1.467,4.975,2.322,7.777,2.388C322.337,295.467,322.336,292.182,320.222,292.132L320.222,292.132z"/>
								</g>
							</g>
						</g>
					</g>
					<path style="fill:#FFCA00;" d="M287.833,120.421c0,0,24.118,13.125,24.819,22.17l-28.609,23.733c0,0,4.31,17.176-6.067,50.605
						c-10.377,33.429-10.47,48.91-2.716,61.369c7.754,12.459,37.272,59.394,28.845,85.496c-8.426,26.102-28.191,10.877-44.383,0.863
						c-16.192-10.014-47.953-49.619-55.861-96.832c-7.908-47.213,14.093-85.172,18.398-91.069
						c4.305-5.897,7.049-19.659,44.951-24.819c0,0,13.009-10.39,18.366-25.354L287.833,120.421z"/>
					<path style="fill:#FFFFFF;" d="M210.286,274.98c-3.045-17.068-3.241-34.013,0.359-50.601c0.243-1.454,0.503-2.903,0.791-4.341
						c0.954-4.765,2.169-9.479,3.651-14.107c3.164-9.885,7.187-20.773,13.504-29.174c4.24-5.807,6.99-19.235,43.267-24.571
						c7.415-7.155,13.948-15.218,19.418-23.951c0.22-0.545,0.433-1.094,0.633-1.651l0.758-2.069
						c-3.873-2.48-6.834-4.093-6.834-4.093l-2.257,6.162c-5.357,14.964-18.366,25.354-18.366,25.354
						c-37.902,5.16-40.646,18.923-44.951,24.819c-6.318,8.4-10.34,19.288-13.505,29.174c-1.482,4.629-2.697,9.342-3.651,14.107
						c-8.119,40.528,1.496,87.827,28.82,119.445c-6.339-14.556-12.361-29.3-16.848-44.52c0.276,0.113,0.555,0.205,0.835,0.282
						c-2.193-6.798-3.886-13.781-5.085-20.847C210.641,274.585,210.454,274.769,210.286,274.98z"/>
					<path style="fill:#FFFFFF;" d="M287.833,120.421l-2.257,6.162c-5.357,14.964-18.366,25.354-18.366,25.354
						c-37.902,5.16-40.646,18.923-44.951,24.819c-6.318,8.4-10.34,19.288-13.504,29.174c-1.482,4.629-2.697,9.342-3.651,14.107
						c-8.119,40.528,1.496,87.827,28.82,119.445c-6.339-14.556-12.361-29.3-16.848-44.52c1.18,0.485,2.416,0.648,3.635,0.39
						c4.379-0.926,6.853-6.762,5.527-13.034c-1.327-6.273-5.952-10.607-10.331-9.681c-1.435,0.303-2.66,1.142-3.619,2.342
						c-4.63-25.957-2.674-51.627,9.203-76.193c1.822-3.769,3.462-8.092,5.815-11.556c2.005-2.951,3.968-6.259,6.912-8.405
						c4.651-3.389,10.484-2.538,15.423-5.116c4.211-2.199,6.989-5.637,7.297-8.605c5.1-1.994,8.72-5.491,12.972-9.258
						c10.025-8.882,18.638-19.359,25.393-30.925C291.121,122.212,287.833,120.421,287.833,120.421z"/>
					<g>
						<path style="fill:#1D1F38;" d="M287.833,120.421c0,0,24.118,13.125,24.819,22.17l-28.609,23.733c0,0,4.31,17.176-6.067,50.605
							c-10.377,33.429-10.47,48.91-2.716,61.369c7.754,12.459,37.272,59.394,28.845,85.497
							c-3.461,10.722-8.838,14.472-15.092,14.472c-8.971,0-19.75-7.708-29.291-13.609c-16.192-10.014-47.952-49.619-55.861-96.832
							s14.092-85.172,18.398-91.069c4.305-5.897,7.049-19.659,44.951-24.819c0,0,13.009-10.39,18.366-25.354L287.833,120.421
							 M287.833,113.421c-0.835,0-1.671,0.149-2.47,0.45c-1.905,0.718-3.403,2.23-4.103,4.142l-2.257,6.162
							c-0.006,0.016-0.012,0.032-0.017,0.048c-3.63,10.14-11.639,18.174-14.812,21.075c-31.697,4.715-40.484,15.437-46.216,25.158
							c-0.526,0.891-0.979,1.661-1.352,2.172c-2.884,3.95-9.69,15.738-14.806,32.077c-6.748,21.551-8.377,43.176-4.842,64.276
							c4.637,27.684,16.61,50.623,25.838,64.992c10.564,16.45,23.303,30.489,33.245,36.637c1.268,0.784,2.558,1.601,3.863,2.427
							c9.499,6.012,19.321,12.229,29.11,12.229c7.079,0,16.598-3.352,21.754-19.321c6.275-19.438-3.303-49.168-29.281-90.892
							l-0.283-0.454c-5.831-9.37-7.135-21.47,3.458-55.595c7.889-25.414,7.665-42.239,6.885-49.81l25.576-21.217
							c1.749-1.451,2.685-3.662,2.51-5.928c-0.47-6.066-5.413-12.298-15.556-19.614c-6.403-4.618-12.633-8.022-12.895-8.164
							C290.141,113.707,288.989,113.421,287.833,113.421L287.833,113.421z"/>
					</g>
					<path style="fill:#FFCA00;" d="M277.975,216.93c10.377-33.429,6.067-50.605,6.067-50.605l28.609-23.733
						c-0.118-1.523-0.91-3.162-2.129-4.834c-6.929,6.008-15.477,10.689-22.832,16.326c-25.665,19.671-37.794,53.75-35.789,86.024
						c2.004,32.274,16.665,62.73,36.218,88.485c5.429,7.151,11.238,13.975,17.301,20.576c-2.179-26.246-23.707-60.5-30.161-70.87
						C267.506,265.839,267.599,250.358,277.975,216.93z"/>
					<g>
						<g>
							<path style="fill:#1D1F38;" d="M253.538,244.289c1.374-1.427,4.347-1.709,5.483-0.054c1.159,1.689,0.207,4.246-0.598,5.896
								c-0.63,1.292-1.483,2.664-2.761,3.401c-1.87,1.077-4.994,0.199-3.997-2.383c0.655-1.697-2.074-2.431-2.723-0.751
								c-1.166,3.02,1.038,6.122,4.162,6.463c3.561,0.389,6.296-2.334,7.758-5.305c1.501-3.051,2.502-7.213-0.203-9.932
								c-2.407-2.42-6.898-1.639-9.118,0.668C250.28,243.601,252.275,245.601,253.538,244.289L253.538,244.289z"/>
						</g>
					</g>
					<g>
						<g>
							<path style="fill:#1D1F38;" d="M213.055,253.025c-9.102-3.014-18.702-4.491-28.296-4.116
								c-8.129,0.317-19.179,1.14-25.936,6.15c-6.095,4.52-5.826,12.982-1.615,18.693c5.406,7.331,15.796,11.603,23.778,15.409
								c5.064,2.414,9.514-5.137,4.422-7.565c-5.96-2.841-12.076-5.848-17.489-9.659c-2.36-1.661-5.655-4.45-5.029-7.733
								c0.625-3.279,5.347-3.904,8.086-4.585c13.185-3.28,26.906-2.399,39.75,1.854C216.091,263.25,218.391,254.792,213.055,253.025
								L213.055,253.025z"/>
						</g>
					</g>
					<path style="fill:#1D1F38;stroke:#1D1F38;stroke-width:0.8761;stroke-miterlimit:10;" d="M285.864,125.032
						c1.178,3.389,5.225,4.894,7.08,7.966c0.249,0.413,0.462,0.876,0.435,1.357c-0.028,0.501-0.308,0.949-0.58,1.37
						c-1.485,2.306-2.971,4.613-4.456,6.919c4.448-2.589,9.444-4.82,14.56-4.267c3.54,0.382,6.796,2.068,9.878,3.851
						c0.798,0.462,1.669,0.95,2.584,0.83c0.04-1.057-0.605-2.003-1.222-2.862c-3.565-4.963-7.173-9.974-11.769-14.002
						c-3.095-2.711-6.677-4.957-10.613-6.212c-1.24-0.395-4.07-1.532-5.296-0.713C285.059,120.21,285.398,123.692,285.864,125.032z"
						/>
					<g>
						<path style="fill:#FFFFFF;" d="M231.772,272.534c-3.331-6.86-13.912-4.421-21.03-5.734c-0.748-3.122,0.238-6.163-0.302-9.318
							c-0.38-2.217-1.57-4.531-3.094-6.191c-2.015-2.194-6.882-4.911-9.973-3.48c-4.044,1.873-3.904,10.238-4.035,13.897
							c-0.148,4.141-0.454,7.962-2.386,11.73c-0.256,0.499-0.518,0.977-0.777,1.448c-7.907-1.909-11.094,8.316-10.249,14.487
							c0.725,5.301,7.11,13.228,12.339,9.037c2.108,2.537,4.857,4.565,8.204,5.746c7.816,2.758,23.023,0,24.302-9.83
							c0.006-0.043,0.001-0.081,0.004-0.122c0.627-0.403,1.204-0.899,1.704-1.518c2.049-2.537,3.965-7.277,2.676-10.608
							C231.93,279.844,233.468,276.026,231.772,272.534z"/>
						<g>
							<g>
								<g>
									<path style="fill:#1D1F38;" d="M222.519,294.331c-1.48,9.487-18.045,9.934-24.354,6.029
										c-8.879-5.495-9.471-16.832-4.982-25.227c3.896-7.286,1.87-14.732,4.097-22.352c0.859-2.94,1.212-3.817,4.226-2.832
										c2.285,0.746,4.062,2.378,5.125,4.505c2.063,4.129,0.201,8.838,1.505,13.182c0.606,2.02,3.778,1.159,3.168-0.874
										c-1.76-5.867,0.973-11.241-3.469-16.396c-2.09-2.425-7.315-5.543-10.665-3.904c-3.419,1.673-3.836,8.515-4.038,11.759
										c-0.25,4.022,0.041,8.054-1.292,11.939c-1.129,3.291-3.438,5.931-4.253,9.332c-2.401,10.02,2.033,21.13,11.803,25.162
										c8.071,3.331,24.667,0.987,26.296-9.45C226.009,293.136,222.844,292.245,222.519,294.331L222.519,294.331z"/>
								</g>
							</g>
							<g>
								<g>
									<path style="fill:#1D1F38;" d="M205.782,267.769c4.044,2.245,8.186,2.474,12.728,2.538
										c2.895,0.041,7.249-0.313,9.573,1.588c2.542,2.079,2.576,4.587,0.607,7.111c-1.159,1.487-2.928,1.967-4.719,1.744
										c-2.093-0.26-2.074,3.027,0,3.285c5.941,0.739,12.03-6.047,9.038-11.938c-4.193-8.255-18.883-3.454-25.57-7.166
										C205.59,263.905,203.931,266.742,205.782,267.769L205.782,267.769z"/>
								</g>
							</g>
							<g>
								<g>
									<path style="fill:#1D1F38;" d="M227.031,282.848c1.38,2.287-0.7,6.98-2.402,8.642c-1.736,1.695-4.795,1.579-7.044,1.372
										c-2.105-0.193-2.092,3.093,0,3.285c3.685,0.339,7.726-0.113,10.108-3.236c2.227-2.92,4.247-8.287,2.175-11.722
										C228.777,279.381,225.935,281.031,227.031,282.848L227.031,282.848z"/>
								</g>
							</g>
							<g>
								<g>
									<path style="fill:#1D1F38;" d="M189.887,274.639c-8.486-2.246-11.731,8.945-10.753,15.369
										c0.841,5.523,8.529,14.834,13.916,7.984c1.293-1.644-1.016-3.984-2.323-2.323c-2.15,2.733-6.155-0.44-7.244-2.526
										c-0.914-1.75-1.281-3.941-1.296-5.903c-0.026-3.369,1.756-10.775,6.827-9.433
										C191.06,278.348,191.933,275.18,189.887,274.639L189.887,274.639z"/>
								</g>
							</g>
						</g>
						
							<path style="fill:none;stroke:#1D1F38;stroke-width:1.7522;stroke-linecap:round;stroke-linejoin:round;stroke-miterlimit:10;" d="
							M194.23,288.136c-0.183,3.637,1.828,7.299,4.995,9.097"/>
						
							<path style="fill:none;stroke:#1D1F38;stroke-width:1.7522;stroke-linecap:round;stroke-linejoin:round;stroke-miterlimit:10;" d="
							M218.973,272.927c1.997-0.304,4.089,0.064,5.862,1.031"/>
					</g>
					<g>
						<g>
							<g>
								<g>
									<path style="fill:#1D1F38;" d="M248.864,251.779c-0.371,2.505-0.186,4.941,0.676,7.331
										c0.459,1.273,2.506,0.724,2.042-0.563c-0.724-2.009-0.989-4.083-0.676-6.204
										C251.104,251.009,249.063,250.433,248.864,251.779L248.864,251.779z"/>
								</g>
							</g>
							<path style="fill:#1D1F38;" d="M253.332,249.288c-0.161,0.461-0.29,0.964-0.154,1.433c0.209,0.719,1.049,1.149,1.783,1.002
								c0.734-0.147,1.315-0.78,1.518-1.501c0.203-0.721,0.067-1.507-0.25-2.185c-0.166-0.355-0.384-0.701-0.415-1.091
								c-0.05-0.632,1.047-1.735,0.701-2.187c-0.729,0.305-1.433,1.354-1.879,1.99C254.089,247.53,253.646,248.387,253.332,249.288z
								"/>
							<g>
								<g>
									<path style="fill:#1D1F38;" d="M250.145,263.413c1.408,0.482,2.846,0.549,4.306,0.296c1.34-0.233,0.772-2.275-0.563-2.042
										c-1.085,0.189-2.143,0.059-3.179-0.296C249.416,260.928,248.861,262.974,250.145,263.413L250.145,263.413z"/>
								</g>
							</g>
							<g>
								<g>
									<path style="fill:#1D1F38;" d="M265.596,243.165c0.797-0.839,1.82-1.421,2.982-1.557c0.573-0.067,1.053-0.439,1.059-1.059
										c0.005-0.521-0.491-1.126-1.059-1.059c-1.728,0.203-3.273,0.906-4.48,2.177
										C263.16,242.656,264.655,244.156,265.596,243.165L265.596,243.165z"/>
								</g>
							</g>
							<g>
								<g>
									<path style="fill:#1D1F38;" d="M265.653,249.086c1.095-0.148,2.19-0.295,3.285-0.443c0.567-0.076,0.877-0.805,0.74-1.303
										c-0.168-0.612-0.734-0.816-1.303-0.74c-1.095,0.148-2.19,0.295-3.285,0.443c-0.567,0.077-0.877,0.805-0.74,1.303
										C264.518,248.958,265.084,249.163,265.653,249.086L265.653,249.086z"/>
								</g>
							</g>
							<g>
								<g>
									<path style="fill:#1D1F38;" d="M265.149,255.151c0.861,0.368,1.585,0.876,2.208,1.574c0.381,0.427,1.109,0.388,1.498,0
										c0.424-0.424,0.382-1.07,0-1.498c-0.729-0.816-1.63-1.476-2.636-1.906c-0.525-0.225-1.135-0.157-1.449,0.38
										C264.509,254.148,264.62,254.925,265.149,255.151L265.149,255.151z"/>
								</g>
							</g>
							<g>
								<g>
									<path style="fill:#1D1F38;" d="M253.197,239.564c0.45-0.219,0.932-0.318,1.43-0.328c1.361-0.028,1.366-2.146,0-2.118
										c-0.889,0.018-1.702,0.23-2.499,0.618c-0.514,0.25-0.653,0.982-0.38,1.449C252.056,239.71,252.681,239.815,253.197,239.564
										L253.197,239.564z"/>
								</g>
							</g>
						</g>
						<g>
							<g>
								<g>
									<g>
										<path style="fill:#FFFFFF;" d="M284.522,214.013c-2.087,9.202-8.035,15.696-13.284,14.505
											c-5.25-1.191-7.814-9.616-5.727-18.817c2.087-9.202,8.035-15.696,13.285-14.505
											C284.046,196.386,286.609,204.811,284.522,214.013z"/>
									</g>
									<g>
										<path style="fill:#1D1F38;" d="M277.533,195.055c0.424,0,0.846,0.046,1.263,0.141c5.25,1.191,7.813,9.616,5.726,18.817
											c-1.921,8.47-7.113,14.646-12.021,14.646c-0.424,0-0.846-0.046-1.263-0.141c-5.25-1.191-7.814-9.616-5.727-18.817
											C267.432,201.231,272.625,195.055,277.533,195.055 M277.533,190.674L277.533,190.674c-7.182,0-13.882,7.426-16.293,18.058
											c-1.175,5.181-1.107,10.386,0.193,14.657c1.537,5.049,4.757,8.476,8.836,9.401c0.729,0.165,1.48,0.249,2.232,0.249
											c7.182,0,13.882-7.426,16.293-18.058c1.175-5.181,1.106-10.386-0.193-14.657c-1.537-5.049-4.757-8.476-8.837-9.401
											C279.035,190.758,278.284,190.674,277.533,190.674L277.533,190.674z"/>
									</g>
									<g>
										<path style="fill:#1D1F38;" d="M281.609,213.876c-2.436,6.665-7.328,11.003-10.926,9.688
											c-3.598-1.315-4.539-7.785-2.103-14.45c2.436-6.665,7.328-11.003,10.926-9.688
											C283.103,200.741,284.045,207.21,281.609,213.876z"/>
									</g>
								</g>
								<g>
									<path style="fill:#FFFFFF;" d="M282.722,204.586c-0.916,2.618-2.84,4.327-4.297,3.817c-1.457-0.51-1.895-3.045-0.979-5.663
										c0.916-2.618,2.84-4.327,4.297-3.817C283.199,199.432,283.638,201.968,282.722,204.586z"/>
								</g>
								<g>
									<g>
										<path style="fill:#1D1F38;" d="M265.501,234.142c2.482-0.284,5.866-0.695,7.515,1.648c1.615,2.296,0.455,4.986-1.812,6.24
											c-2.467,1.365-0.26,5.149,2.211,3.783c3.931-2.174,5.869-6.863,4.006-11.079c-2.115-4.785-7.258-5.506-11.919-4.972
											C262.732,230.078,262.7,234.462,265.501,234.142L265.501,234.142z"/>
									</g>
								</g>
							</g>
							<g>
								<g>
									<path style="fill:#1D1F38;" d="M242.285,181.119c5.791-1.622,11.535-0.03,15.707,4.292
										c3.923,4.064,10.114-2.135,6.195-6.195c-6.284-6.51-15.527-8.983-24.231-6.545
										C234.535,174.189,236.838,182.645,242.285,181.119L242.285,181.119z"/>
								</g>
							</g>
							<g>
								<g>
									<path style="fill:#1D1F38;" d="M280.3,185.175c5.065-2.107,10.05-1.78,14.665,1.256c4.724,3.107,9.118-4.476,4.422-7.565
										c-6.315-4.154-14.409-5.054-21.416-2.139c-2.201,0.915-3.717,2.895-3.06,5.389
										C275.457,184.184,278.118,186.083,280.3,185.175L280.3,185.175z"/>
								</g>
							</g>
							<g>
								<g>
									<g>
										<path style="fill:#FFFFFF;" d="M252.2,210.193c-2.087,9.202-8.035,15.696-13.284,14.505
											c-5.25-1.191-7.814-9.615-5.727-18.817c2.087-9.202,8.035-15.696,13.284-14.505
											C251.723,192.567,254.287,200.992,252.2,210.193z"/>
									</g>
									<g>
										<path style="fill:#1D1F38;" d="M245.21,191.235c0.424,0,0.846,0.046,1.263,0.141c5.25,1.191,7.814,9.615,5.727,18.817
											c-1.921,8.47-7.113,14.646-12.021,14.646c-0.424,0-0.846-0.046-1.263-0.141c-5.25-1.191-7.814-9.615-5.727-18.817
											C235.11,197.411,240.302,191.235,245.21,191.235 M245.21,186.855C245.21,186.855,245.21,186.855,245.21,186.855
											c-7.182,0-13.882,7.426-16.293,18.058c-2.707,11.934,1.175,22.277,9.03,24.058c0.729,0.165,1.48,0.249,2.232,0.249
											c7.182,0,13.882-7.426,16.293-18.058c2.707-11.934-1.175-22.277-9.03-24.058
											C246.713,186.939,245.962,186.855,245.21,186.855L245.21,186.855z"/>
									</g>
									<g>
										<path style="fill:#1D1F38;" d="M248.39,208.535c-2.436,6.665-7.328,11.003-10.926,9.688
											c-3.598-1.315-4.54-7.785-2.103-14.45c2.436-6.666,7.328-11.003,10.926-9.688
											C249.885,195.4,250.827,201.869,248.39,208.535z"/>
									</g>
									<g>
										<g>
											<path style="fill:#1D1F38;" d="M228.485,231.117c4.268-0.991,10.973-2.245,12.492,3.423
												c1.164,4.346-2.276,7.723-5.902,9.32c-2.574,1.134-0.347,4.91,2.211,3.783c5.844-2.575,9.924-8.801,7.609-15.212
												c-2.725-7.547-11.168-7.025-17.574-5.538C224.575,227.53,225.737,231.755,228.485,231.117L228.485,231.117z"/>
										</g>
									</g>
								</g>
								<g>
									<path style="fill:#FFFFFF;" d="M249.494,199.707c-0.916,2.618-2.84,4.327-4.297,3.817c-1.457-0.51-1.895-3.045-0.979-5.663
										c0.916-2.618,2.84-4.327,4.297-3.817C249.972,194.553,250.41,197.089,249.494,199.707z"/>
								</g>
							</g>
						</g>
					</g>
				</g>
			</g>
		</g>
	</g>
</g>
</svg>
